<?xml version="1.0" encoding="iso-8859-1"?>
<!-- Generator: Adobe Illustrator 19.0.0, SVG Export Plug-In . SVG Version: 6.00 Build 0)  -->
<svg version="1.1" id="Capa_1" xmlns="http://www.w3.org/2000/svg" xmlns:xlink="http://www.w3.org/1999/xlink" x="0px" y="0px"
	 viewBox="0 0 512 512" style="enable-background:new 0 0 512 512;" xml:space="preserve">
<path style="fill:#FEA832;" d="M496,153.6V316c0,41.4-33.6,75-75,75H241c-18.9,0-36.599-9-47.999-24l-51-79.001
	c-9.6-12.299-7.2-30.899,4.2-40.8c13.499-10.8,30.599-9,41.1,1.5l38.699,39V63.6C226,45,241,30,259.6,30c18.9,0,33.9,15,33.9,33.6
	v-30c0-14.7,9.3-27.001,22.5-31.5c3.6-1.501,7.2-2.1,11.4-2.1C346,0,361,15,361,33.6v30C361,45,376,30,394.6,30
	c18.9,0,33.9,15,33.9,33.6v90c0-18.6,15-33.6,33.9-33.6C481,120,496,135,496,153.6z"/>
<path style="fill:#FF8700;" d="M496,153.6V316c0,41.4-33.6,75-75,75H316V2.1c3.6-1.501,7.2-2.1,11.4-2.1C346,0,361,15,361,33.6v30
	C361,45,376,30,394.6,30c18.9,0,33.9,15,33.9,33.6v90c0-18.6,15-33.6,33.9-33.6C481,120,496,135,496,153.6z"/>
<g>
	<path style="fill:#00CCB2;" d="M80.395,85.605l-60-60c-5.859-5.859-5.859-15.352,0-21.211s15.352-5.859,21.211,0l60,60
		c5.859,5.859,5.859,15.352,0,21.211C95.746,91.465,86.254,91.465,80.395,85.605z"/>
	<path style="fill:#00CCB2;" d="M151,90c-8.291,0-15-6.709-15-15V15c0-8.291,6.709-15,15-15s15,6.709,15,15v60
		C166,83.291,159.291,90,151,90z"/>
	<path style="fill:#00CCB2;" d="M91,150H31c-8.291,0-15-6.709-15-15s6.709-15,15-15h60c8.291,0,15,6.709,15,15S99.291,150,91,150z"
		/>
</g>
<path style="fill:#FEDBAB;" d="M376,273.6V436c0,41.4-33.6,76-75,76H121c-18.9,0-36.599-9-47.999-24l-51-79.001
	c-9.6-12.299-7.2-30.899,4.2-40.8c13.499-10.8,30.599-9,41.1,1.5l38.699,39V183.6c0-18.6,15-33.6,33.6-33.6
	c18.9,0,33.9,15,33.9,33.6v-30c0-14.7,9.3-27.001,22.5-31.5c3.6-1.501,7.2-2.1,11.4-2.1c18.6,0,33.6,15,33.6,33.6v30
	c0-18.6,15-33.6,33.6-33.6c18.9,0,33.9,15,33.9,33.6v90c0-18.6,15-33.6,33.9-33.6C361,240,376,255,376,273.6z"/>
<path style="fill:#FEC478;" d="M376,273.6V436c0,41.4-33.6,76-75,76H196V122.1c3.6-1.501,7.2-2.1,11.4-2.1c18.6,0,33.6,15,33.6,33.6
	v30c0-18.6,15-33.6,33.6-33.6c18.9,0,33.9,15,33.9,33.6v90c0-18.6,15-33.6,33.9-33.6C361,240,376,255,376,273.6z"/>
<g>
</g>
<g>
</g>
<g>
</g>
<g>
</g>
<g>
</g>
<g>
</g>
<g>
</g>
<g>
</g>
<g>
</g>
<g>
</g>
<g>
</g>
<g>
</g>
<g>
</g>
<g>
</g>
<g>
</g>
</svg>
